<?xml version="1.0"?>
<svg width="298" height="420" xmlns="http://www.w3.org/2000/svg" xmlns:svg="http://www.w3.org/2000/svg">
 <style type="text/css">
  <![CDATA[
	.st0{fill:#EBEBEB;}
	.st1{fill:#2062AF;}
	.st2{fill:#231F20;}
	.st3{fill:#FFFFFF;}
	.st4{fill:#3C9CD7;}
]]>
 </style>
 <g>
  <title>Layer 1</title>
  <path id="svg_1" d="m27,386l-27,-304l298,0l-27,304l-122,34l-122,-34z" class="st1"/>
  <path id="svg_2" d="m149,393.839996l98.479996,-27.299988l23.199997,-259.540009l-121.679993,0l0,286.839996z" class="st4"/>
  <path d="m55.452,144.679993l3.330002,37l92.716,0l-89.044994,38.362l-0.023003,0l3.085003,36.640015l129.294991,0l-4.332001,48.921997l-41.641998,11.22699l-41.547997,-11.203003l-2.656006,-29.945984l-37.449997,0l5.225998,58.72699l76.392006,21.26001l76.550003,-21.26001l10.23999,-114.725998l-89.106003,0l92.470001,-37.763l0,-0.020004l0.028,0l3.34201,-37.216003l-186.872005,-0.003998z" class="st3" id="_x33__1_"/>
  <path id="svg_3" d="m67.18,275.679993l37.452003,0l2.655998,29.946991l41.547997,11.20401l-0.035995,38.835999l-76.391998,-21.26001l-5.228004,-58.72699zm81.82,-57.025986l0,-35.632004l-86.546997,37.020004l3.061996,36.639999l83.320007,0l0.164993,-37l-2.515991,0l2.515991,-1.028zm0,-73.974014l-0.112,37l-90.108002,0l-3.327999,-37l93.548,0z" class="st0"/>
 </g>
</svg>