<?xml version="1.0"?>
<svg width="298" height="420" xmlns="http://www.w3.org/2000/svg" xmlns:svg="http://www.w3.org/2000/svg">
 <style type="text/css">
  <![CDATA[
	.st0{fill:#E44D26;}
	.st1{fill:#EBEBEB;}
	.st2{fill:#F16529;}
	.st3{fill:#FFFFFF;}
]]>
 </style>
 <g>
  <title>Layer 1</title>
  <path id="svg_1" d="m27,386l-27,-304l298,0l-27,304l-122,34l-122,-34z" class="st0"/>
  <path id="svg_2" d="m149,393.839996l98.479996,-27.299988l23.199997,-259.540009l-121.679993,0l0,286.839996z" class="st2"/>
  <path d="m55.452,144.617004l3.330002,37l3.669998,38.360001l-0.021999,0l3.084999,36.639999l129.294998,0l-4.332001,48.923004l-41.641998,11.22699l-41.547997,-11.203979l-2.656006,-29.946014l-37.449997,0l5.225998,58.726013l76.392006,21.259979l76.550003,-21.259979l10.23999,-114.726013l-135.630005,0.064011l-3.407997,-37.783005l142.399986,-0.044006l0.003006,-0.019989l0.027008,0l3.341995,-37.216003l-186.87199,-0.001007z" class="st3" id="_x35__1_"/>
  <path id="svg_3" d="m149,219.658005l-49.040001,0.022995l-3.407997,-37.78299l52.447998,-0.018005l0,-37.199997l-93.220001,0l10.063004,111.999985l83.156998,-0.062988l0,-36.959zm-0.164001,97.108994l-41.220001,-11.140015l-2.656998,-29.707977l-37.448997,0l5.225998,58.487l76.064003,21.194977l0.035995,-38.833984z" class="st1"/>
 </g>
</svg>