<?xml version="1.0"?>
<svg width="298" height="420" xmlns="http://www.w3.org/2000/svg" xmlns:svg="http://www.w3.org/2000/svg">
 <style type="text/css">
  <![CDATA[
	.st0{fill:#EBEBEB;}
	.st1{fill:#8ACF17;}
	.st2{fill:#FFFFFF;}
	.st3{fill:#63A814;}
]]>
 </style>
 <g>
  <title>Layer 1</title>
  <path id="svg_1" d="m27,386l-27,-304l298,0l-27,304l-122,34l-122,-34z" class="st3"/>
  <path id="svg_2" d="m149,393.839996l98.479996,-27.299988l23.199997,-259.540009l-121.679993,0l0,286.839996z" class="st1"/>
  <path d="m55.476002,145l3.330002,37l142.380001,0l-10.686005,123.859985l-41.639999,11.227997l-41.548004,-11.203003l-2.656998,-29.884979l-37.450005,0l5.227005,58.664001l76.391991,21.26001l76.550003,-21.26001l16.974014,-189.664001l-186.872005,0z" class="st2" id="J_1_"/>
  <path id="svg_3" d="m148.860001,317.088013l-41.548004,-11.203003l-2.656998,-29.88501l-37.450005,0l5.227005,58.664001l76.568001,21.26001l-0.139999,-38.835999zm-90.055,-135.088013l90.195,0l0,-37l-93.523998,0l3.328999,37z" class="st0"/>
 </g>
</svg>